<?xml version="1.0" encoding="utf-8"?>
<!-- Generator: Adobe Illustrator 27.1.1, SVG Export Plug-In . SVG Version: 6.00 Build 0)  -->
<svg version="1.1" id="icon" xmlns="http://www.w3.org/2000/svg" xmlns:xlink="http://www.w3.org/1999/xlink" x="0px" y="0px"
	 viewBox="0 0 100 100" style="enable-background:new 0 0 100 100;" xml:space="preserve">
<style type="text/css">
	.st0{fill:#333333;}
	.st1{fill:#CCCCCC;}
	.st2{fill:#FFFFFF;}
</style>
<g>
	<path d="M8.2,86.2c-0.7-0.7-1.4-1.3-2.1-2.1C5.2,83,5,81.7,5,80.3C5,57.1,5,34,5,10.8c0-2.5,1.9-4.6,3.8-5.5C9.4,5,10.2,5,10.9,5
		C34,5,57.1,5,80.2,5c2.3,0,4.1,1,5.5,2.7c0.1,0.2,0.1,0.5,0.2,0.7c0.5,0.4,0.6,1,0.7,1.6c0.1,0.6,0.1,1.2,0.1,1.8
		c0,22.4,0,44.8,0,67.2c0,0.8,0,1.6-0.2,2.5c-0.6,3.7-4.1,5.7-6.9,5.2c-0.3-0.1-0.6,0-1,0c-22,0-44,0-66,0
		C11.2,86.7,9.7,86.9,8.2,86.2z"/>
	<path class="st0" d="M8.2,86.2c0.6-0.5,1,0.1,1.6,0.2c0.3,0,0.6,0.2,0.9,0.2c1.1,0,2.3-0.2,3.4-0.2c21.7,0,43.4,0,65.1,0
		c1.8,0,3.3-0.2,4.7-1.1c1.3-0.8,1.8-2.1,2.2-3.4c0.2-0.8,0.2-1.7,0.2-2.5c0-22.4,0-44.8,0-67.2c0-1.3-0.1-2.5-0.4-3.7
		c1,0.1,1.3,0.9,1.9,1.5c1.2,1.1,2.2,2.5,3.3,3.7c0.3,0.3,0.5,0.8,0.6,1.2c0.1,0.8,0.2,1.6,0.2,2.4c0,22.4,0,44.8,0,67.2
		c0,1.4-0.2,2.7-0.9,3.9c-1.2,2.3-3.2,3.5-5.8,3.5c-23.1,0-46.2,0-69.3,0c-0.9,0-1.7,0-2.4-0.7C11.5,89.8,9.9,87.9,8.2,86.2z"/>
	<path class="st1" d="M13.6,91.2c1.3,0.5,2.7,0.4,4,0.4c22.3,0,44.6,0,66.9,0c1.3,0,2.5-0.1,3.6-0.7c2.2-1.2,3.3-3.1,3.4-5.5
		c0.1-8.8,0-17.6,0-26.4c0-13.8,0-27.6,0-41.4c0-1.3-0.2-2.6-0.4-3.9c1.6,0.7,2.7,2,3.4,3.5c0.3,0.7,0.4,1.5,0.5,2.3
		c0,23.3,0,46.6,0,69.9c0,2.4-1.4,4.3-3.7,5.1c-1.2,0.4-2.3,0.6-3.6,0.6c-22.9,0-45.8,0-68.6,0c-1.4,0-2.4-0.6-3.3-1.5
		c-0.4-0.3-0.8-0.6-1.2-0.9C14.2,92.2,13.6,91.9,13.6,91.2z"/>
	<path class="st2" d="M53.9,44.2c0.9,0.4,1.9,0.8,2.8,1.4c1.4,0.8,2.6,1.8,3.5,3.1c0.6,0.9,0.6,1.9,0.8,2.8c0.4,2.1-0.3,4.2-1.3,6
		c-0.8,1.3-1.8,2.4-3.4,2.9c-0.6,0.2-1.1,0.6-1.7,0.8c-1.1,0.3-2.1,0.8-3.2,0.8c-5.7,0.1-11.4,0.2-17.1,0.2c-0.4,0-0.9-0.1-1.3-0.1
		c0-11.6,0-23.1,0-34.6c1.1-0.1,2.1-0.2,3.1-0.2c3.2,0,6.4-0.1,9.6,0c2.4,0,4.8,0.1,7.1,0.9c2,0.7,4,1.7,5.1,3.6
		c1.4,2.4,1.5,5,0.5,7.7c-0.7,1.9-2.1,3-3.7,4c-0.2,0.2-0.5,0.3-0.7,0.4C53.9,44,53.9,44.1,53.9,44.2z"/>
	<path class="st2" d="M72,68.5c-1,0-1.7-0.1-2.3,0c-0.5,0.1-0.6,0-0.7-0.4c-0.1-0.4,0-0.7,0.5-0.7c1.3,0,2.5,0,3.8,0
		c0.2,0,0.5,0.2,0.6,0.3c0.1,0.2-0.1,0.5-0.2,0.6c-0.5,0.6-1.1,1.2-1.7,1.9c0.3,0.2,0.5,0.3,0.8,0.5c1.3,0.6,1.7,2,0.7,3.1
		c-1.2,1.3-3.2,1.1-4.6-0.4c0.6-0.8,0.6-0.8,1.3-0.3c0.5,0.4,1.7,0.5,2.2,0.2c0.5-0.3,0.5-1.4,0-1.7c-0.4-0.2-0.8-0.2-1.2-0.3
		c-0.3-0.1-0.6-0.2-0.7-0.3c-0.1-0.3,0-0.6,0.2-0.8c0.2-0.3,0.6-0.6,0.9-0.9C71.6,69.2,71.7,68.9,72,68.5z"/>
	<path d="M44.4,58.6c-1.8,0-3.7,0-5.5,0c-0.4,0-0.8,0.1-1.2,0.2c-0.6,0.1-0.9-0.1-1-0.8c0-1.3,0-2.6,0-3.9c0-2.3,0-4.5,0-6.8
		c0-1,0-0.9,1-0.8c0.9,0.1,1.8,0,2.7,0c2.6,0,5.2,0,7.7,0c0.9,0,1.9-0.2,2.8,0c2,0.5,4.1,1,5.3,3c1.6,2.6,0.9,5.8-1.6,7.5
		c-1.6,1.1-3.3,1.6-5.3,1.5C47.7,58.6,46,58.6,44.4,58.6z"/>
	<path d="M43.3,31.1c1.6,0,3.2,0,4.7,0c1,0,2.1,0.1,3.1,0.2c0.1,0,0.2,0,0.3,0.1c1.3,1.1,2.9,2,3.4,3.8c0.7,2.5-0.5,5.4-2.8,6.6
		c-1.4,0.8-3,1.1-4.5,1.1c-3.3,0.1-6.5,0-9.8,0c-1.1,0-1.1,0-1.1-1.1c0-3.2,0-6.3,0-9.5c0-1.2,0-1.2,1.2-1.2
		C39.7,31.1,41.5,31.1,43.3,31.1C43.3,31.1,43.3,31.1,43.3,31.1z"/>
</g>
</svg>
